<svg id="background_pattern" data-name="background pattern" xmlns="http://www.w3.org/2000/svg" xmlns:xlink="http://www.w3.org/1999/xlink" viewBox="0 0 1920 1080"><defs><style>.cls-1,.cls-2{fill:none;}.cls-2{stroke:#000;stroke-miterlimit:10;stroke-width:3px;}.cls-3{fill:gray;opacity:0.66;}.cls-4{opacity:0.74;fill:url(#New_Pattern);}</style><pattern id="New_Pattern" data-name="New Pattern" width="497.89" height="497.89" patternUnits="userSpaceOnUse" viewBox="0 0 497.89 497.89"><rect class="cls-1" width="497.89" height="497.89"/><circle class="cls-2" cx="397.5" cy="497.89" r="19.08"/><circle class="cls-2" cx="473.82" cy="497.89" r="19.08"/><circle class="cls-2" cx="435.66" cy="459.74" r="19.08"/><circle class="cls-2" cx="273.03" cy="497.89" r="19.08"/><circle class="cls-2" cx="349.34" cy="497.89" r="19.08"/><circle class="cls-2" cx="311.18" cy="459.74" r="19.08"/><circle class="cls-2" cx="148.55" cy="497.89" r="19.08"/><circle class="cls-2" cx="224.87" cy="497.89" r="19.08"/><circle class="cls-2" cx="186.71" cy="459.74" r="19.08"/><circle class="cls-2" cx="24.08" cy="497.89" r="19.08"/><circle class="cls-2" cx="100.39" cy="497.89" r="19.08"/><circle class="cls-2" cx="62.24" cy="459.74" r="19.08"/><circle class="cls-2" cx="428.62" cy="373.42" r="19.08"/><circle class="cls-2" cx="466.78" cy="411.58" r="19.08"/><circle class="cls-2" cx="504.93" cy="373.42" r="19.08"/><circle class="cls-2" cx="466.78" cy="335.26" r="19.08"/><circle class="cls-2" cx="304.14" cy="373.42" r="19.08"/><circle class="cls-2" cx="342.3" cy="411.58" r="19.08"/><circle class="cls-2" cx="380.46" cy="373.42" r="19.08"/><circle class="cls-2" cx="342.3" cy="335.26" r="19.08"/><circle class="cls-2" cx="179.67" cy="373.42" r="19.08"/><circle class="cls-2" cx="217.83" cy="411.58" r="19.08"/><circle class="cls-2" cx="255.99" cy="373.42" r="19.08"/><circle class="cls-2" cx="217.83" cy="335.26" r="19.08"/><circle class="cls-2" cx="55.2" cy="373.42" r="19.08"/><circle class="cls-2" cx="93.36" cy="411.58" r="19.08"/><circle class="cls-2" cx="131.51" cy="373.42" r="19.08"/><circle class="cls-2" cx="93.36" cy="335.26" r="19.08"/><circle class="cls-2" cx="7.04" cy="373.42" r="19.08"/><circle class="cls-2" cx="459.74" cy="248.95" r="19.08"/><circle class="cls-2" cx="497.89" cy="287.11" r="19.08"/><circle class="cls-2" cx="497.89" cy="210.79" r="19.08"/><circle class="cls-2" cx="335.26" cy="248.95" r="19.08"/><circle class="cls-2" cx="373.42" cy="287.11" r="19.08"/><circle class="cls-2" cx="411.58" cy="248.95" r="19.08"/><circle class="cls-2" cx="373.42" cy="210.79" r="19.08"/><circle class="cls-2" cx="210.79" cy="248.95" r="19.08"/><circle class="cls-2" cx="248.95" cy="287.11" r="19.08"/><circle class="cls-2" cx="287.11" cy="248.95" r="19.08"/><circle class="cls-2" cx="248.95" cy="210.79" r="19.08"/><circle class="cls-2" cx="86.32" cy="248.95" r="19.08"/><circle class="cls-2" cx="124.47" cy="287.11" r="19.08"/><circle class="cls-2" cx="162.63" cy="248.95" r="19.08"/><circle class="cls-2" cx="124.47" cy="210.79" r="19.08"/><circle class="cls-2" cy="287.11" r="19.08"/><circle class="cls-2" cx="38.16" cy="248.95" r="19.08"/><circle class="cls-2" cy="210.79" r="19.08"/><circle class="cls-2" cx="490.86" cy="124.47" r="19.08"/><circle class="cls-2" cx="366.38" cy="124.47" r="19.08"/><circle class="cls-2" cx="404.54" cy="162.63" r="19.08"/><circle class="cls-2" cx="442.7" cy="124.47" r="19.08"/><circle class="cls-2" cx="404.54" cy="86.32" r="19.08"/><circle class="cls-2" cx="241.91" cy="124.47" r="19.08"/><circle class="cls-2" cx="280.07" cy="162.63" r="19.08"/><circle class="cls-2" cx="318.22" cy="124.47" r="19.08"/><circle class="cls-2" cx="280.07" cy="86.32" r="19.08"/><circle class="cls-2" cx="117.43" cy="124.47" r="19.08"/><circle class="cls-2" cx="155.59" cy="162.63" r="19.08"/><circle class="cls-2" cx="193.75" cy="124.47" r="19.08"/><circle class="cls-2" cx="155.59" cy="86.32" r="19.08"/><circle class="cls-2" cx="-7.04" cy="124.47" r="19.08"/><circle class="cls-2" cx="31.12" cy="162.63" r="19.08"/><circle class="cls-2" cx="69.28" cy="124.47" r="19.08"/><circle class="cls-2" cx="31.12" cy="86.32" r="19.08"/><circle class="cls-2" cx="397.5" r="19.08"/><circle class="cls-2" cx="435.66" cy="38.16" r="19.08"/><circle class="cls-2" cx="473.82" r="19.08"/><circle class="cls-2" cx="273.03" r="19.08"/><circle class="cls-2" cx="311.18" cy="38.16" r="19.08"/><circle class="cls-2" cx="349.34" r="19.08"/><circle class="cls-2" cx="148.55" r="19.08"/><circle class="cls-2" cx="186.71" cy="38.16" r="19.08"/><circle class="cls-2" cx="224.87" r="19.08"/><circle class="cls-2" cx="24.08" r="19.08"/><circle class="cls-2" cx="62.24" cy="38.16" r="19.08"/><circle class="cls-2" cx="100.39" r="19.08"/></pattern></defs><title>background_pattern</title><rect class="cls-3" width="1920" height="1080"/><rect id="pattern" class="cls-4" width="1920" height="1080"/></svg>